<svg width="16" height="20" viewBox="0 0 16 20" fill="none" xmlns="http://www.w3.org/2000/svg">
<path d="M0.156 20V0.259999H8.78C10.852 0.259999 12.4573 0.717332 13.596 1.632C14.7347 2.528 15.304 3.77867 15.304 5.384C15.304 6.448 15.0333 7.36267 14.492 8.128C13.9507 8.89333 13.204 9.45333 12.252 9.808C13.372 10.1253 14.24 10.6853 14.856 11.488C15.4907 12.272 15.808 13.2707 15.808 14.484C15.808 16.2387 15.2107 17.6013 14.016 18.572C12.84 19.524 11.1973 20 9.088 20H0.156ZM3.6 8.632H8.164C10.6093 8.632 11.832 7.68933 11.832 5.804C11.832 3.91867 10.6093 2.976 8.164 2.976H3.6V8.632ZM3.6 17.284H8.64C11.104 17.284 12.336 16.2947 12.336 14.316C12.336 12.3373 11.104 11.348 8.64 11.348H3.6V17.284Z" fill="#4285F4"/>
</svg>
